<?xml version="1.0" standalone="no"?>
<!DOCTYPE svg PUBLIC "-//W3C//DTD SVG 20010904//EN"
 "http://www.w3.org/TR/2001/REC-SVG-20010904/DTD/svg10.dtd">
<svg version="1.0" xmlns="http://www.w3.org/2000/svg"
 width="1536.000000pt" height="1024.000000pt" viewBox="0 0 1536.000000 1024.000000"
 preserveAspectRatio="xMidYMid meet">

<g transform="translate(0.000000,1024.000000) scale(0.100000,-0.100000)"
fill="#000000" stroke="none">
<path d="M0 5120 l0 -5120 7680 0 7680 0 0 5120 0 5120 -7680 0 -7680 0 0
-5120z m12889 3211 c76 -23 150 -78 191 -139 65 -98 60 145 58 -3097 l-3
-2950 -22 -48 c-31 -66 -102 -138 -170 -173 l-58 -29 -5200 0 -5200 0 -57 27
c-73 34 -142 103 -176 176 l-27 57 -3 2945 -2 2944 21 63 c35 106 136 199 248
229 36 10 1148 13 5193 13 5010 1 5148 1 5207 -18z"/>
<path d="M6489 7214 c-68 -21 -140 -72 -177 -128 -65 -97 -63 -66 -60 -987 3
-831 3 -834 25 -881 29 -63 96 -134 158 -166 l50 -27 1169 -3 c1293 -3 1230
-6 1318 61 48 37 101 110 120 165 17 51 24 1597 8 1691 -20 116 -88 209 -189
258 l-56 28 -1160 2 c-983 1 -1167 0 -1206 -13z m2363 -206 c71 -54 69 -26 66
-856 l-3 -744 -241 235 c-132 129 -254 242 -272 251 -39 20 -92 20 -140 1 -22
-9 -74 -54 -128 -111 l-90 -95 -72 80 c-234 258 -569 609 -600 628 -44 27
-118 31 -162 8 -16 -8 -118 -113 -227 -232 -109 -120 -254 -279 -323 -353 -69
-74 -146 -159 -172 -187 l-48 -52 0 665 c0 703 0 705 46 746 57 51 -7 48 1205
46 l1126 -3 35 -27z"/>
<path d="M8018 6794 c-64 -20 -149 -99 -178 -166 -35 -81 -32 -169 9 -252 36
-73 72 -108 149 -144 45 -20 65 -23 130 -20 121 6 208 62 259 166 38 77 39
182 3 257 -67 139 -222 205 -372 159z"/>
<path d="M7940 4406 c-153 -33 -253 -140 -281 -300 -32 -185 52 -362 205 -433
54 -25 72 -28 161 -28 75 0 113 5 150 19 65 25 137 94 164 156 23 54 48 198
38 224 -6 14 -30 16 -177 16 l-170 0 0 -65 0 -65 90 0 c101 0 104 -3 71 -68
-62 -121 -274 -102 -343 31 -26 52 -36 176 -18 233 34 107 142 170 244 143 57
-15 92 -43 112 -89 l18 -40 79 0 79 0 -7 33 c-27 122 -124 211 -260 236 -70
13 -84 13 -155 -3z"/>
<path d="M9280 4401 c-65 -21 -132 -75 -158 -126 -18 -36 -24 -102 -12 -144
24 -90 103 -144 265 -181 49 -12 97 -26 106 -33 49 -38 42 -104 -16 -131 -42
-20 -107 -21 -145 -1 -35 18 -70 61 -70 86 0 17 -9 19 -85 19 -82 0 -85 -1
-85 -22 0 -41 47 -123 91 -161 54 -47 121 -67 219 -67 97 0 165 20 217 64 52
46 73 90 73 160 0 124 -76 192 -258 231 -126 27 -165 62 -148 131 19 76 202
68 222 -11 6 -24 9 -25 90 -25 96 0 100 5 63 75 -30 57 -57 83 -114 113 -41
21 -66 26 -140 29 -49 1 -101 -1 -115 -6z"/>
<path d="M5730 4025 l0 -375 75 0 75 0 0 375 0 375 -75 0 -75 0 0 -375z"/>
<path d="M6030 4025 l0 -375 80 0 80 0 0 238 0 237 98 -173 97 -172 49 2 49 3
91 162 c50 89 94 165 99 169 4 4 7 -99 7 -229 l0 -237 75 0 75 0 0 375 0 375
-78 0 -79 0 -118 -221 c-65 -121 -121 -217 -125 -212 -4 4 -59 104 -121 221
l-113 212 -83 0 -83 0 0 -375z"/>
<path d="M7095 4148 c-48 -139 -107 -308 -131 -375 l-43 -123 84 0 83 0 24 73
25 72 140 3 140 3 28 -76 27 -75 83 0 82 0 -62 178 c-35 97 -94 265 -133 372
l-69 195 -95 3 -95 3 -88 -253z m187 -206 c-46 -2 -86 -1 -88 1 -2 1 14 57 36
122 22 66 40 129 40 140 1 11 23 -43 49 -120 l48 -140 -85 -3z"/>
<path d="M8500 4025 l0 -375 245 0 245 0 0 70 0 70 -170 0 -171 0 3 83 3 82
158 3 157 3 0 70 0 70 -157 -2 -158 -1 -3 81 -3 81 171 0 170 0 0 70 0 70
-245 0 -245 0 0 -375z"/>
<path d="M5783 3355 c-106 -33 -196 -115 -234 -214 -32 -81 -31 -223 1 -306
32 -83 123 -173 205 -204 157 -59 334 -11 431 116 101 132 102 346 4 482 -84
116 -263 172 -407 126z m202 -144 c50 -23 68 -43 96 -106 25 -58 30 -164 9
-217 -39 -98 -107 -142 -211 -136 -57 3 -74 8 -106 34 -132 104 -117 349 26
424 47 25 133 26 186 1z"/>
<path d="M7957 3346 c-74 -31 -119 -65 -158 -123 -92 -133 -91 -335 2 -469
135 -196 451 -198 594 -4 127 173 86 448 -82 559 -99 66 -248 81 -356 37z
m220 -127 c46 -17 101 -78 119 -132 31 -95 7 -221 -54 -283 -89 -89 -250 -68
-317 40 -28 46 -30 56 -30 146 0 90 2 100 30 145 39 62 97 95 171 95 29 0 65
-5 81 -11z"/>
<path d="M4790 2990 l0 -370 80 0 81 0 -3 230 c-2 127 -1 230 2 230 3 -1 74
-104 159 -230 l155 -230 78 0 78 0 0 370 0 370 -80 0 -80 0 -2 -236 -3 -237
-158 237 -157 236 -75 0 -75 0 0 -370z"/>
<path d="M6287 3288 l2 -73 103 -1 103 -2 3 -296 2 -296 75 0 75 0 2 296 3
296 105 2 105 1 3 73 3 72 -293 0 -293 0 2 -72z"/>
<path d="M7190 2990 l0 -370 78 0 77 0 0 142 0 143 138 0 137 0 0 73 0 72
-139 0 -140 0 2 81 2 81 163 -1 162 -2 0 76 0 75 -240 0 -240 0 0 -370z"/>
<path d="M8583 3088 c4 -304 7 -323 69 -393 56 -64 113 -88 212 -89 45 -1 102
5 129 13 60 17 128 77 158 138 23 46 24 57 27 326 l3 277 -75 0 -76 0 0 -242
c0 -134 -5 -259 -10 -279 -16 -57 -51 -82 -119 -87 -74 -5 -123 16 -145 63
-13 27 -16 77 -16 289 l0 256 -81 0 -80 0 4 -272z"/>
<path d="M9308 2990 l-3 -370 77 0 78 0 2 237 3 237 160 -237 160 -236 78 -1
77 0 0 370 0 370 -80 0 -80 0 -2 -234 -3 -233 -155 231 -156 231 -77 3 -77 3
-2 -371z"/>
<path d="M10070 2989 l0 -371 183 4 c175 3 184 4 244 32 76 35 142 102 169
171 15 38 19 76 19 160 0 134 -17 187 -84 258 -86 93 -167 117 -386 117 l-145
0 0 -371z m338 206 c55 -22 88 -63 108 -132 31 -107 -1 -220 -77 -270 -35 -23
-54 -28 -130 -31 l-89 -4 0 232 0 233 73 -6 c39 -3 91 -13 115 -22z"/>
</g>
</svg>
