<svg width="29" height="29" viewBox="0 0 29 29" fill="none" xmlns="http://www.w3.org/2000/svg">
<circle cx="14" cy="14" r="14" fill="#CF223A"/>
<mask id="path-2-inside-1_20_285" fill="white">
<path d="M15.2188 7V17.2286C15.2188 17.7704 14.9908 18.29 14.585 18.6731C14.1791 19.0562 13.6287 19.2714 13.0547 19.2714C12.4807 19.2714 11.9303 19.0562 11.5244 18.6731C11.1186 18.29 10.8906 17.7704 10.8906 17.2286C10.8906 16.6861 11.1183 16.1658 11.524 15.7815C11.9296 15.3973 12.48 15.1804 13.0547 15.1785V12.4572C11.7141 12.4572 10.4284 12.9599 9.48049 13.8547C8.53255 14.7495 8 15.9631 8 17.2286C8 18.494 8.53255 19.7077 9.48049 20.6025C10.4284 21.4973 11.7141 22 13.0547 22C14.3953 22 15.681 21.4973 16.6289 20.6025C17.5769 19.7077 18.1094 18.494 18.1094 17.2286V12.4572L18.2624 12.5294C19.1134 12.9274 20.0502 13.1349 21 13.1357V10.4071H20.9159C20.114 10.2185 19.402 9.78206 18.8934 9.16722C18.3848 8.55237 18.1088 7.79453 18.1094 7.01444H15.2188V7Z"/>
</mask>
<path d="M15.2188 17.2286H78.2188H15.2188ZM13.0547 19.2714V82.2714V19.2714ZM10.8906 17.2286H73.8906V17.2282L10.8906 17.2286ZM13.0547 15.1785L13.2641 78.1782L76.0547 77.9695V15.1785H13.0547ZM13.0547 12.4572H76.0547V-50.5428H13.0547V12.4572ZM8 17.2286H-55H8ZM13.0547 22V85V22ZM18.1094 12.4572L44.9994 -44.5159L-44.8906 -86.9419V12.4572H18.1094ZM18.2624 12.5294L-8.62764 69.5024L-8.52821 69.5493L-8.42862 69.5959L18.2624 12.5294ZM21 13.1357L20.9461 76.1357L84 76.1896V13.1357H21ZM21 10.4071H84V-52.5929H21V10.4071ZM20.9159 10.4071L6.49411 71.7342L13.608 73.4071H20.9159V10.4071ZM18.1094 7.01444L81.1094 7.0633L81.1583 -55.9856H18.1094V7.01444ZM15.2188 7.01444H-47.7812V70.0144H15.2188V7.01444ZM15.2188 7H-47.7812V17.2286H15.2188H78.2188V7H15.2188ZM15.2188 17.2286H-47.7812C-47.7812 -0.149109 -40.4346 -16.0257 -28.6605 -27.1399L14.585 18.6731L57.8304 64.4861C70.4162 52.6056 78.2188 35.6899 78.2188 17.2286H15.2188ZM14.585 18.6731L-28.6605 -27.1399C-17.0096 -38.1378 -1.94509 -43.7286 13.0547 -43.7286V19.2714V82.2714C29.2024 82.2714 45.3679 76.2502 57.8304 64.4861L14.585 18.6731ZM13.0547 19.2714V-43.7286C28.0545 -43.7286 43.119 -38.1378 54.7699 -27.1399L11.5244 18.6731L-31.721 64.4861C-19.2585 76.2502 -3.09303 82.2714 13.0547 82.2714V19.2714ZM11.5244 18.6731L54.7699 -27.1399C66.544 -16.0257 73.8906 -0.149137 73.8906 17.2286H10.8906H-52.1094C-52.1094 35.6899 -44.3068 52.6057 -31.721 64.4861L11.5244 18.6731ZM10.8906 17.2286L73.8906 17.2282C73.8907 34.5632 66.5789 50.4077 54.85 61.5183L11.524 15.7815L-31.8021 -29.9553C-44.3422 -18.0761 -52.1095 -1.191 -52.1094 17.229L10.8906 17.2286ZM11.524 15.7815L54.85 61.5183C43.2434 72.5132 28.2286 78.1284 13.2641 78.1782L13.0547 15.1785L12.8453 -47.8211C-3.26851 -47.7676 -19.3842 -41.7186 -31.8021 -29.9553L11.524 15.7815ZM13.0547 15.1785H76.0547V12.4572H13.0547H-49.9453V15.1785H13.0547ZM13.0547 12.4572V-50.5428C-3.85965 -50.5428 -20.7603 -44.2341 -33.7649 -31.9583L9.48049 13.8547L52.7259 59.6677C41.6172 70.1539 27.2879 75.4572 13.0547 75.4572V12.4572ZM9.48049 13.8547L-33.7649 -31.9583C-46.8928 -19.5662 -55 -1.9564 -55 17.2286H8H71C71 33.8827 63.9579 49.0652 52.7259 59.6677L9.48049 13.8547ZM8 17.2286H-55C-55 36.4136 -46.8928 54.0234 -33.7649 66.4155L9.48049 20.6025L52.7259 -25.2105C63.9579 -14.608 71 0.574505 71 17.2286H8ZM9.48049 20.6025L-33.7649 66.4155C-20.7603 78.6913 -3.85964 85 13.0547 85V22V-41C27.2879 -41 41.6172 -35.6967 52.7259 -25.2105L9.48049 20.6025ZM13.0547 22V85C29.969 85 46.8697 78.6913 59.8743 66.4155L16.6289 20.6025L-26.6165 -25.2105C-15.5078 -35.6967 -1.17845 -41 13.0547 -41V22ZM16.6289 20.6025L59.8743 66.4155C73.0023 54.0233 81.1094 36.4136 81.1094 17.2286H18.1094H-44.8906C-44.8906 0.574517 -37.8485 -14.608 -26.6165 -25.2105L16.6289 20.6025ZM18.1094 17.2286H81.1094V12.4572H18.1094H-44.8906V17.2286H18.1094ZM18.1094 12.4572L-8.78058 69.4302L-8.62764 69.5024L18.2624 12.5294L45.1523 -44.4437L44.9994 -44.5159L18.1094 12.4572ZM18.2624 12.5294L-8.42862 69.5959C0.854908 73.938 10.8943 76.1271 20.9461 76.1357L21 13.1357L21.0539 -49.8643C29.2061 -49.8573 37.3719 -48.0832 44.9533 -44.5372L18.2624 12.5294ZM21 13.1357H84V10.4071H21H-42V13.1357H21ZM21 10.4071V-52.5929H20.9159V10.4071V73.4071H21V10.4071ZM20.9159 10.4071L35.3377 -50.92C47.449 -48.0718 58.8856 -41.3266 67.4372 -30.9888L18.8934 9.16722L-29.6504 49.3232C-20.0815 60.8908 -7.22108 68.5089 6.49411 71.7342L20.9159 10.4071ZM18.8934 9.16722L67.4372 -30.9888C76.0497 -20.5772 81.1204 -7.19516 81.1094 7.0633L18.1094 7.01444L-44.8906 6.96557C-44.9028 22.7842 -39.2801 37.6819 -29.6504 49.3232L18.8934 9.16722ZM18.1094 7.01444V-55.9856H15.2188V7.01444V70.0144H18.1094V7.01444ZM15.2188 7.01444H78.2188V7H15.2188H-47.7812V7.01444H15.2188Z" fill="#FAE3E5" mask="url(#path-2-inside-1_20_285)"/>
</svg>
