<svg width="28" height="28" viewBox="0 0 28 28" fill="none" xmlns="http://www.w3.org/2000/svg">
<circle cx="14" cy="14" r="14" fill="#CF223A"/>
<path d="M18.2691 13.3427C18.1916 13.3055 18.1128 13.2697 18.033 13.2355C17.8941 10.6755 16.4952 9.20984 14.1464 9.19484C14.1358 9.19478 14.1252 9.19478 14.1146 9.19478C12.7097 9.19478 11.5412 9.79446 10.8221 10.8857L12.1138 11.7718C12.6511 10.9567 13.4942 10.7829 14.1152 10.7829C14.1224 10.7829 14.1296 10.7829 14.1366 10.783C14.91 10.7879 15.4936 11.0128 15.8713 11.4513C16.1462 11.7706 16.3301 12.2117 16.4211 12.7685C15.7354 12.6519 14.9938 12.6161 14.2011 12.6616C11.9679 12.7902 10.5323 14.0926 10.6287 15.9024C10.6776 16.8204 11.135 17.6101 11.9164 18.126C12.5771 18.5622 13.428 18.7754 14.3124 18.7272C15.4803 18.6631 16.3965 18.2175 17.0357 17.4028C17.5212 16.784 17.8282 15.9822 17.9637 14.9718C18.5203 15.3077 18.9328 15.7498 19.1607 16.2811C19.548 17.1844 19.5706 18.6687 18.3595 19.8789C17.2983 20.939 16.0227 21.3976 14.095 21.4118C11.9566 21.3959 10.3394 20.7102 9.28795 19.3735C8.30333 18.1218 7.79447 16.3139 7.77549 14C7.79447 11.686 8.30333 9.87815 9.28795 8.6265C10.3394 7.28983 11.9566 6.60406 14.095 6.58817C16.2489 6.60418 17.8943 7.29326 18.986 8.63637C19.5213 9.29502 19.9249 10.1233 20.191 11.0891L21.7047 10.6852C21.3822 9.49646 20.8748 8.4721 20.1842 7.62256C18.7846 5.90063 16.7377 5.0183 14.1003 5H14.0897C11.4576 5.01823 9.43363 5.90392 8.0739 7.63243C6.86393 9.1706 6.23979 11.3108 6.21882 13.9937L6.21875 14L6.21882 14.0063C6.23979 16.6891 6.86393 18.8294 8.0739 20.3676C9.43363 22.0961 11.4576 22.9818 14.0897 23H14.1003C16.4403 22.9838 18.0897 22.3711 19.4486 21.0135C21.2263 19.2374 21.1728 17.0112 20.5869 15.6445C20.1665 14.6644 19.365 13.8684 18.2691 13.3427ZM14.2288 17.1413C13.25 17.1964 12.2332 16.7571 12.1831 15.8161C12.1459 15.1184 12.6796 14.3399 14.2889 14.2472C14.4732 14.2366 14.654 14.2314 14.8317 14.2314C15.4162 14.2314 15.963 14.2882 16.4602 14.3968C16.2747 16.7127 15.1871 17.0887 14.2288 17.1413Z" fill="#FAE3E5"/>
</svg>
