<?xml version="1.0" encoding="UTF-8" standalone="no"?>
<!DOCTYPE svg PUBLIC "-//W3C//DTD SVG 1.1//EN" "http://www.w3.org/Graphics/SVG/1.1/DTD/svg11.dtd">
<svg width="100%" height="100%" viewBox="0 0 501 362" version="1.1" xmlns="http://www.w3.org/2000/svg" xmlns:xlink="http://www.w3.org/1999/xlink" xml:space="preserve" xmlns:serif="http://www.serif.com/" style="fill-rule:evenodd;clip-rule:evenodd;stroke-linejoin:round;stroke-miterlimit:2;">
    <g id="Монтажная-область2ллщ" serif:id="Монтажная область2ллщ" transform="matrix(0.260827,0,0,0.334773,-555.126,0)">
        <rect x="2128.33" y="0" width="1920" height="1080" style="fill:none;"/>
        <g transform="matrix(13.2469,0,0,10.3208,-1215.64,-1575.65)">
            <path d="M324.372,213.887C324.414,214.728 324.877,215.148 325.718,215.148L336.691,215.148C337.531,215.148 337.868,214.77 337.7,213.929L332.024,186.938C331.856,186.097 331.351,185.719 330.51,185.719L314.618,185.719C313.778,185.719 313.273,186.097 313.105,186.938L307.429,213.929C307.261,214.77 307.597,215.148 308.438,215.148L319.411,215.148C320.252,215.148 320.715,214.728 320.757,213.887L321.051,209.893C321.093,209.052 321.555,208.632 322.396,208.632L322.733,208.632C323.573,208.632 324.036,209.052 324.078,209.893L324.372,213.887ZM323.573,203.334C323.615,204.049 323.279,204.428 322.564,204.428C321.808,204.428 321.513,204.049 321.555,203.334L321.892,198.542C321.934,198.121 322.144,197.911 322.564,197.911C322.985,197.911 323.195,198.121 323.237,198.542L323.573,203.334Z" style="fill:rgb(255,126,147);fill-rule:nonzero;"/>
        </g>
    </g>
</svg>
