<?xml version="1.0" encoding="UTF-8" standalone="no"?>
<!DOCTYPE svg PUBLIC "-//W3C//DTD SVG 1.1//EN" "http://www.w3.org/Graphics/SVG/1.1/DTD/svg11.dtd">
<svg width="100%" height="100%" viewBox="0 0 154 146" version="1.1" xmlns="http://www.w3.org/2000/svg" xmlns:xlink="http://www.w3.org/1999/xlink" xml:space="preserve" xmlns:serif="http://www.serif.com/" style="fill-rule:evenodd;clip-rule:evenodd;stroke-linecap:round;stroke-linejoin:round;stroke-miterlimit:1.5;">
    <g transform="matrix(1,0,0,1,-1074.14,0)">
        <g id="Монтажная-область2ллщ" serif:id="Монтажная область2ллщ" transform="matrix(0.0797911,0,0,0.134753,904.316,0)">
            <rect x="2128.33" y="0" width="1920" height="1080" style="fill:none;"/>
            <g transform="matrix(10.5145,5.51726,-3.67338,2.45451,5170.15,-2778.28)">
                <g>
                    <g transform="matrix(0.40139,0,0,1.01814,0,0)">
                        <path d="M354.759,924.304L382.075,940.963L415,928.455C416.431,927.911 418.001,928.157 419.068,929.091C420.136,930.025 420.522,931.492 420.069,932.891L409.645,965.09L427.641,987.454L433.529,989.225L430.255,994.407C430.17,994.562 430.076,994.711 429.973,994.853L429.973,994.854L429.973,994.854C429.232,995.878 428.043,996.557 426.757,996.658L392.145,999.379L371.785,1027.5C370.9,1028.72 369.41,1029.42 367.924,1029.31C366.437,1029.19 365.204,1028.29 364.727,1026.96L353.76,996.445L320.847,988.561C319.417,988.218 318.367,987.125 318.126,985.727C317.944,984.67 318.247,983.573 318.928,982.696L318.928,982.696L321.987,977.848L322.954,979.402L347.536,960.341L347.556,927.347C347.556,926.672 347.743,926.01 348.08,925.421L348.08,925.421L348.08,925.42C348.144,925.308 348.214,925.199 348.288,925.093L351.52,920.007L354.759,924.304Z" style="fill:rgb(255,126,147);stroke:black;stroke-width:2.78px;"/>
                    </g>
                    <g transform="matrix(0.431049,-0.613453,0.247656,1.11963,-257.132,139.587)">
                        <path d="M390.106,927.767C390.676,926.776 391.818,926.153 393.063,926.153C394.308,926.153 395.449,926.776 396.02,927.767L409.144,950.579L437.433,954.705C438.662,954.884 439.677,955.663 440.061,956.724C440.446,957.784 440.137,958.948 439.26,959.74L419.083,977.964L423.442,1003.33C423.631,1004.43 423.117,1005.53 422.11,1006.19C421.102,1006.84 419.77,1006.94 418.658,1006.44L393.063,994.89L367.468,1006.44C366.356,1006.94 365.024,1006.84 364.016,1006.19C363.009,1005.53 362.495,1004.43 362.684,1003.33L367.043,977.964L346.865,959.74C345.989,958.948 345.68,957.784 346.064,956.724C346.449,955.663 347.464,954.884 348.693,954.705L376.982,950.579L390.106,927.767Z" style="fill:rgb(232,79,104);stroke:black;stroke-width:2.23px;"/>
                    </g>
                </g>
            </g>
        </g>
    </g>
</svg>
