<?xml version="1.0" encoding="UTF-8" standalone="no"?>
<!DOCTYPE svg PUBLIC "-//W3C//DTD SVG 1.1//EN" "http://www.w3.org/Graphics/SVG/1.1/DTD/svg11.dtd">
<svg width="100%" height="100%" viewBox="0 0 396 231" version="1.1" xmlns="http://www.w3.org/2000/svg" xmlns:xlink="http://www.w3.org/1999/xlink" xml:space="preserve" xmlns:serif="http://www.serif.com/" style="fill-rule:evenodd;clip-rule:evenodd;stroke-linejoin:round;stroke-miterlimit:2;">
    <g transform="matrix(1,0,0,1,-311.817,0)">
        <g id="Монтажная-область2ллщ" serif:id="Монтажная область2ллщ" transform="matrix(0.205753,0,0,0.213605,-126.095,0)">
            <rect x="2128.33" y="0" width="1920" height="1080" style="fill:none;"/>
            <g transform="matrix(7.76238,-3.36693,1.37803,2.94774,-3320.82,1480.38)">
                <g>
                    <g transform="matrix(0.40139,0,0,1.01814,0,0)">
                        <path d="M1875.03,468.688C1874.9,469.792 1874.5,470.866 1873.85,471.815L1843.08,516.554L1854.22,554.001C1856.45,554.949 1858.54,555.845 1858.57,555.915C1859.18,557.271 1859.45,569.015 1858.07,573.995C1857.93,574.494 1857.25,575.177 1856.82,575.608C1855,577.427 1852.33,578.103 1849.87,577.368L1797.88,561.848L1753.23,592.675C1751.11,594.135 1748.37,594.316 1746.08,593.147C1743.79,591.977 1742.32,589.645 1742.26,587.071L1740.89,532.74L1721.92,518.195C1721.92,518.197 1721.91,518.193 1721.91,518.182L1698.77,500.437C1698.19,500.001 1697.84,499.737 1697.8,499.698L1697.76,499.661C1696.45,498.642 1695.57,497.215 1695.22,495.648C1692.57,489.185 1693.44,479.69 1696.97,476.57C1697.03,476.523 1726.88,464.572 1726.96,465.166C1726.99,465.356 1726.42,470.913 1725.65,478.361L1750.87,469.456L1768.9,418.208C1769.75,415.781 1771.86,414.018 1774.4,413.616C1776.94,413.214 1779.49,414.238 1781.06,416.283L1814.03,459.453L1859.88,460.611L1859.88,460.604C1859.88,460.604 1859.88,460.606 1859.88,460.607L1859.88,460.611L1860.12,460.617C1862.11,460.254 1875.08,454.507 1875.08,454.507L1875.08,467.671C1875.09,468.011 1875.07,468.35 1875.03,468.687L1875.03,468.688L1875.03,468.688Z" style="fill:rgb(232,79,104);"/>
                    </g>
                    <g transform="matrix(0.40139,0,0,1.01814,0,0)">
                        <path d="M1860.04,459.725C1859.95,459.709 1859.87,459.707 1859.78,459.719L1814.48,458.575C1814.48,458.575 1781.76,415.743 1781.76,415.743C1780,413.438 1777.12,412.285 1774.26,412.738C1771.4,413.191 1769.02,415.177 1768.06,417.913C1768.06,417.913 1750.18,468.76 1750.18,468.76C1750.18,468.76 1726.68,477.056 1726.68,477.056C1727.38,470.2 1727.87,465.226 1727.84,465.044C1727.8,464.769 1727.66,464.521 1727.35,464.361C1727.26,464.31 1727.09,464.244 1726.84,464.257C1726.68,464.265 1726.34,464.337 1725.84,464.49C1721.42,465.847 1701.34,473.844 1697.34,475.461C1696.92,475.629 1696.67,475.731 1696.62,475.753C1696.47,475.821 1696.4,475.891 1696.39,475.904C1694.85,477.256 1693.74,479.696 1693.19,482.607C1692.41,486.771 1692.75,491.902 1694.38,495.921C1694.78,497.651 1695.76,499.23 1697.21,500.361L1697.39,500.471C1697.39,500.471 1697.21,500.365 1697.21,500.365C1697.21,500.365 1697.24,500.382 1697.24,500.382C1697.37,500.49 1697.72,500.757 1698.23,501.145C1698.23,501.145 1721.29,518.832 1721.29,518.832C1721.34,518.88 1721.39,518.919 1721.45,518.95L1740.01,533.187C1740.01,533.187 1741.37,587.094 1741.37,587.094C1741.44,589.993 1743.09,592.621 1745.67,593.938C1748.25,595.257 1751.35,595.052 1753.73,593.406C1753.73,593.406 1798.03,562.822 1798.03,562.822C1798.03,562.822 1849.62,578.22 1849.62,578.22C1852.39,579.049 1855.4,578.287 1857.44,576.236C1857.97,575.711 1858.76,574.842 1858.93,574.233C1859.91,570.679 1860.09,563.748 1859.88,559.435C1859.79,557.456 1859.58,555.997 1859.38,555.553C1859.36,555.497 1859.26,555.267 1858.92,555.086C1858.56,554.891 1856.84,554.153 1854.95,553.347C1854.95,553.347 1844.06,516.708 1844.06,516.708C1844.06,516.708 1874.58,472.319 1874.58,472.319C1875.32,471.25 1875.76,470.039 1875.91,468.796C1875.9,468.928 1875.85,469.052 1875.79,469.162L1874.67,469.499C1874.67,469.499 1875.66,469.079 1875.88,468.815L1875.91,468.795C1875.96,468.419 1875.98,468.041 1875.97,467.663C1875.97,467.663 1875.97,454.507 1875.97,454.507C1875.97,454.206 1875.82,453.926 1875.57,453.762C1875.32,453.598 1875,453.572 1874.72,453.694C1874.72,453.694 1862.25,459.236 1860.04,459.725ZM1874.16,468.511C1874.19,468.239 1874.2,467.966 1874.19,467.692C1874.19,467.685 1874.19,467.678 1874.19,467.671C1874.19,467.671 1874.19,455.867 1874.19,455.867C1870.86,457.322 1861.91,461.193 1860.28,461.491C1860.21,461.503 1860.15,461.507 1860.09,461.505L1860.09,461.505L1860.09,461.505C1860.04,461.503 1860,461.499 1859.96,461.492L1859.94,461.494C1859.92,461.494 1859.9,461.495 1859.88,461.496L1859.83,461.495L1859.85,461.499L1814.01,460.341C1813.74,460.335 1813.49,460.206 1813.33,459.992C1813.33,459.992 1780.35,416.822 1780.35,416.822C1778.99,415.037 1776.76,414.143 1774.54,414.494C1772.33,414.845 1770.48,416.384 1769.74,418.503L1751.71,469.751C1751.62,470.005 1751.42,470.205 1751.17,470.294L1725.95,479.2C1725.66,479.301 1725.34,479.248 1725.1,479.06C1724.86,478.872 1724.74,478.574 1724.77,478.271C1725.34,472.735 1725.81,468.264 1725.99,466.324C1725.48,466.488 1724.8,466.709 1724.11,466.956C1717.21,469.434 1701.05,475.876 1697.86,477.167C1697.69,477.235 1697.55,477.293 1697.46,477.331C1696.22,478.492 1695.39,480.542 1694.94,482.936C1694.21,486.808 1694.52,491.584 1696.05,495.311C1696.07,495.357 1696.08,495.406 1696.09,495.455C1696.39,496.816 1697.15,498.057 1698.3,498.959C1698.3,498.959 1698.3,498.959 1698.3,498.959C1698.38,499.015 1698.32,499.189 1698.2,499.4L1698.43,499.069C1698.42,499.062 1698.4,499.035 1698.4,499.035C1698.4,499.035 1698.8,499.35 1699.3,499.727L1722.45,517.477L1722.46,517.484L1722.47,517.49L1741.43,532.035C1741.64,532.198 1741.77,532.449 1741.78,532.718C1741.78,532.718 1743.14,587.049 1743.14,587.049C1743.2,589.297 1744.48,591.334 1746.48,592.355C1748.48,593.376 1750.88,593.218 1752.72,591.943L1797.37,561.117C1797.6,560.964 1797.87,560.919 1798.13,560.997C1798.13,560.997 1850.12,576.516 1850.12,576.516C1852.27,577.158 1854.6,576.568 1856.19,574.98C1856.42,574.743 1856.74,574.426 1856.99,574.109C1857.09,573.983 1857.18,573.867 1857.21,573.757C1858.16,570.338 1858.3,563.669 1858.1,559.519C1858.04,558.158 1857.96,557.087 1857.84,556.546C1857.21,556.267 1855.45,555.492 1853.87,554.819C1853.63,554.715 1853.44,554.508 1853.37,554.254L1842.23,516.808C1842.15,516.55 1842.2,516.272 1842.35,516.051C1842.35,516.051 1873.12,471.311 1873.12,471.311C1873.68,470.494 1874.02,469.57 1874.14,468.62C1874.15,468.585 1874.15,468.548 1874.16,468.511ZM1722.17,517.34C1722,517.291 1721.81,517.295 1721.64,517.354C1721.82,517.291 1722,517.288 1722.17,517.34ZM1722.69,517.771C1722.7,517.787 1722.71,517.803 1722.72,517.82L1722.69,517.771ZM1722.54,517.56C1722.6,517.614 1722.65,517.682 1722.69,517.769C1722.65,517.692 1722.6,517.622 1722.54,517.56ZM1875.79,469.162L1874.67,469.499C1874.92,469.615 1875.22,469.601 1875.47,469.463C1875.6,469.389 1875.71,469.285 1875.79,469.162ZM1874.14,468.62L1874.15,468.581C1874.15,468.602 1874.15,468.623 1874.14,468.644L1874.67,469.497L1874.67,469.499L1874.67,469.499L1874.67,469.499L1874.67,469.499L1874.14,468.644L1874.14,468.644L1874.14,468.653L1874.14,468.668C1874.15,469.158 1874.66,469.493 1874.67,469.499L1874.67,469.499C1874.34,469.351 1874.14,469.022 1874.14,468.668L1874.14,468.665L1874.14,468.62ZM1874.67,469.497L1874.67,469.498L1874.67,469.497L1874.67,469.497L1874.15,468.58L1874.16,468.511C1874.18,468.417 1874.22,468.317 1874.28,468.215C1874.4,468.029 1874.66,469.446 1874.67,469.497ZM1859.51,461.421L1859.51,461.421L1859.51,461.421L1859.52,461.423L1859.52,461.419L1859.52,461.419L1859.52,461.423L1859.9,461.477L1859.94,461.489L1859.95,461.49L1859.9,461.493C1859.88,461.494 1859.85,461.493 1859.82,461.492L1859.53,461.426L1859.52,461.423L1859.52,461.423L1859.53,461.425L1859.51,461.421ZM1859.57,461.442L1859.53,461.426L1859.53,461.425C1859.56,461.439 1859.59,461.45 1859.62,461.459L1859.57,461.442ZM1859.49,461.409L1859.51,461.416L1859.51,461.416L1859.48,461.4L1859.49,461.409ZM1859.45,461.389L1859.46,461.393L1859.44,461.384L1859.45,461.389ZM1859.66,461.469L1859.65,461.467L1859.66,461.469ZM1860.48,461.255L1860.46,461.278C1860.34,461.383 1860.19,461.451 1860.04,461.48C1860.18,461.458 1860.34,461.401 1860.48,461.255ZM1860.75,460.439L1860.75,460.45L1860.75,460.451L1860.75,460.439Z"/>
                    </g>
                    <g transform="matrix(0.426605,-0.171386,0.0685641,1.09807,-83.5886,258.955)">
                        <path d="M1792.79,419.952C1793.92,417.878 1796.12,416.586 1798.51,416.586C1800.89,416.586 1803.09,417.878 1804.23,419.952L1828.22,463.724L1877.79,472.731C1880.14,473.158 1882.06,474.821 1882.8,477.063C1883.54,479.306 1882.97,481.767 1881.33,483.476L1846.59,519.536L1853.23,568.875C1853.54,571.213 1852.54,573.532 1850.6,574.918C1848.67,576.304 1846.13,576.533 1843.97,575.515L1798.51,554.029L1753.04,575.515C1750.89,576.533 1748.34,576.304 1746.41,574.918C1744.48,573.532 1743.47,571.213 1743.79,568.875L1750.43,519.536L1715.69,483.476C1714.04,481.767 1713.48,479.306 1714.21,477.063C1714.95,474.821 1716.87,473.158 1719.22,472.731L1768.79,463.724L1792.79,419.952Z" style="fill:rgb(255,126,147);"/>
                    </g>
                    <g transform="matrix(0.426605,-0.171386,0.0685641,1.09807,-83.5886,258.955)">
                        <path d="M1792.06,419.565L1768.26,462.994C1768.26,462.994 1719.07,471.931 1719.07,471.931C1716.43,472.412 1714.26,474.285 1713.43,476.812C1712.6,479.339 1713.23,482.112 1715.09,484.036C1715.09,484.036 1749.56,519.814 1749.56,519.814C1749.56,519.814 1742.97,568.768 1742.97,568.768C1742.61,571.401 1743.75,574.015 1745.92,575.576C1748.1,577.138 1750.97,577.397 1753.4,576.25C1753.4,576.25 1798.51,554.932 1798.51,554.932C1798.51,554.932 1843.62,576.25 1843.62,576.25C1846.04,577.397 1848.91,577.138 1851.09,575.576C1853.27,574.015 1854.4,571.401 1854.05,568.768C1854.05,568.768 1847.46,519.814 1847.46,519.814C1847.46,519.814 1881.93,484.036 1881.93,484.036C1883.78,482.112 1884.42,479.339 1883.59,476.812C1882.76,474.285 1880.59,472.412 1877.94,471.931C1877.94,471.931 1828.76,462.994 1828.76,462.994C1828.76,462.994 1804.95,419.565 1804.95,419.565C1803.67,417.228 1801.2,415.772 1798.51,415.772C1795.82,415.772 1793.34,417.228 1792.06,419.565ZM1793.51,420.338C1794.51,418.528 1796.42,417.4 1798.51,417.4C1800.59,417.4 1802.51,418.528 1803.5,420.338C1803.5,420.338 1827.49,464.111 1827.49,464.111C1827.61,464.328 1827.83,464.48 1828.07,464.525L1877.64,473.532C1879.69,473.905 1881.37,475.357 1882.02,477.315C1882.66,479.273 1882.17,481.423 1880.73,482.915C1880.73,482.915 1845.99,518.975 1845.99,518.975C1845.81,519.154 1845.73,519.399 1845.77,519.643L1852.41,568.982C1852.68,571.024 1851.81,573.05 1850.12,574.26C1848.43,575.47 1846.21,575.67 1844.33,574.781C1844.33,574.781 1798.87,553.295 1798.87,553.295C1798.64,553.188 1798.38,553.188 1798.15,553.295L1752.68,574.781C1750.81,575.67 1748.58,575.47 1746.9,574.26C1745.21,573.05 1744.33,571.024 1744.61,568.982C1744.61,568.982 1751.25,519.643 1751.25,519.643C1751.28,519.399 1751.2,519.154 1751.03,518.975L1716.29,482.915C1714.85,481.423 1714.36,479.273 1715,477.315C1715.64,475.357 1717.32,473.905 1719.37,473.532C1719.37,473.532 1768.94,464.525 1768.94,464.525C1769.19,464.48 1769.4,464.328 1769.52,464.111C1769.52,464.111 1793.51,420.338 1793.51,420.338Z"/>
                    </g>
                </g>
            </g>
        </g>
    </g>
</svg>
