<?xml version="1.0" encoding="UTF-8" standalone="no"?>
<!DOCTYPE svg PUBLIC "-//W3C//DTD SVG 1.1//EN" "http://www.w3.org/Graphics/SVG/1.1/DTD/svg11.dtd">
<svg width="100%" height="100%" viewBox="0 0 339 309" version="1.1" xmlns="http://www.w3.org/2000/svg" xmlns:xlink="http://www.w3.org/1999/xlink" xml:space="preserve" xmlns:serif="http://www.serif.com/" style="fill-rule:evenodd;clip-rule:evenodd;stroke-linejoin:round;stroke-miterlimit:2;">
    <g transform="matrix(1,0,0,1,-521.209,0)">
        <g id="Монтажная-область2ллщ" serif:id="Монтажная область2ллщ" transform="matrix(0.176328,0,0,0.28539,145.925,0)">
            <rect x="2128.33" y="0" width="1920" height="1080" style="fill:none;"/>
            <g transform="matrix(19.595,0,0,12.1067,-5790.12,-1938.93)">
                <g transform="matrix(-1,0,0,1,903.676,0.0334295)">
                    <path d="M446.841,208.884C446.799,208.338 447.051,207.833 447.724,207.833C448.312,207.833 448.649,208.211 448.985,208.632L453.862,214.181C454.451,214.812 455.081,215.148 455.922,215.148L462.607,215.148C463.448,215.148 463.868,214.728 463.868,213.887L463.868,186.98C463.868,186.139 463.448,185.719 462.607,185.719L453.778,185.719C452.937,185.719 452.517,186.139 452.601,186.98L453.063,192.446C453.105,192.992 452.895,193.497 452.222,193.497C451.634,193.497 451.339,193.076 450.961,192.656L446,186.728C445.454,186.097 444.823,185.719 443.982,185.719L437.297,185.719C436.457,185.719 436.036,186.139 436.036,186.98L436.036,213.887C436.036,214.728 436.457,215.148 437.297,215.148L446.126,215.148C446.967,215.148 447.345,214.728 447.261,213.887L446.841,208.884Z" style="fill:rgb(255,126,147);fill-rule:nonzero;"/>
                </g>
                <g transform="matrix(0.369646,0,0,0.369646,213.686,119.871)">
                    <ellipse cx="650.204" cy="162.861" rx="15.882" ry="10.55" style="fill:rgb(255,126,147);"/>
                </g>
            </g>
        </g>
    </g>
</svg>
