<?xml version="1.0" encoding="UTF-8" standalone="no"?>
<!DOCTYPE svg PUBLIC "-//W3C//DTD SVG 1.1//EN" "http://www.w3.org/Graphics/SVG/1.1/DTD/svg11.dtd">
<svg width="100%" height="100%" viewBox="0 0 275 341" version="1.1" xmlns="http://www.w3.org/2000/svg" xmlns:xlink="http://www.w3.org/1999/xlink" xml:space="preserve" xmlns:serif="http://www.serif.com/" style="fill-rule:evenodd;clip-rule:evenodd;stroke-linejoin:round;stroke-miterlimit:2;">
    <g id="Монтажная-область2ллщ" serif:id="Монтажная область2ллщ" transform="matrix(0.142755,0,0,0.315247,-303.829,0)">
        <rect x="2128.33" y="0" width="1920" height="1080" style="fill:none;"/>
        <g transform="matrix(24.2033,0,0,10.9601,-3981.43,-1673.25)">
            <path d="M292.925,193.917C292.883,194.211 292.714,194.674 292.126,194.674C291.663,194.674 291.579,194.211 291.579,193.917L291.579,186.98C291.579,186.139 291.159,185.719 290.318,185.719L281.069,185.719C280.228,185.719 279.808,186.139 279.808,186.98L279.808,213.887C279.808,214.728 280.228,215.148 281.069,215.148L290.318,215.148C291.159,215.148 291.579,214.728 291.579,213.887L291.537,206.109C291.537,205.395 291.748,205.016 292.252,205.016C292.799,205.016 293.009,205.31 293.219,205.689C294.102,207.244 294.27,210.524 293.85,213.887C293.766,214.728 294.102,215.148 294.943,215.148L305.874,215.148C306.757,215.148 307.177,214.728 307.177,213.887C307.051,204.428 305.663,201.527 303.015,200.097C302.216,199.677 302.006,199.172 302.3,198.416L306.715,186.896C307.009,186.097 306.757,185.719 305.916,185.719L295.784,185.719C294.943,185.719 294.438,186.097 294.27,186.938L292.925,193.917Z" style="fill:rgb(255,126,147);fill-rule:nonzero;"/>
        </g>
    </g>
</svg>
