<?xml version="1.0" encoding="UTF-8" standalone="no"?>
<!DOCTYPE svg PUBLIC "-//W3C//DTD SVG 1.1//EN" "http://www.w3.org/Graphics/SVG/1.1/DTD/svg11.dtd">
<svg width="100%" height="100%" viewBox="0 0 359 345" version="1.1" xmlns="http://www.w3.org/2000/svg" xmlns:xlink="http://www.w3.org/1999/xlink" xml:space="preserve" xmlns:serif="http://www.serif.com/" style="fill-rule:evenodd;clip-rule:evenodd;stroke-linejoin:round;stroke-miterlimit:2;">
    <g transform="matrix(1,0,0,1,-900.643,0)">
        <g id="Монтажная-область2ллщ" serif:id="Монтажная область2ллщ" transform="matrix(0.186634,0,0,0.318664,503.424,0)">
            <rect x="2128.33" y="0" width="1920" height="1080" style="fill:none;"/>
            <g transform="matrix(-18.5129,1.32783e-15,-2.26718e-15,-10.8426,13147,2691.49)">
                <path d="M547.658,186.98C547.574,186.139 547.111,185.719 546.271,185.719L536.138,185.719C535.298,185.719 534.919,186.139 535.087,186.98L540.006,213.887C540.175,214.728 540.637,215.148 541.478,215.148L559.051,215.148C559.892,215.148 560.355,214.728 560.523,213.887L565.442,186.98C565.61,186.139 565.232,185.719 564.391,185.719L554.259,185.719C553.418,185.719 552.955,186.139 552.871,186.98L551.232,201.274C551.105,202.241 550.811,202.536 550.265,202.536C549.676,202.536 549.424,202.241 549.298,201.274L547.658,186.98Z" style="fill:rgb(255,126,147);fill-rule:nonzero;"/>
            </g>
        </g>
    </g>
</svg>
