<?xml version="1.0" encoding="UTF-8" standalone="no"?>
<!DOCTYPE svg PUBLIC "-//W3C//DTD SVG 1.1//EN" "http://www.w3.org/Graphics/SVG/1.1/DTD/svg11.dtd">
<svg width="100%" height="100%" viewBox="0 0 344 281" version="1.1" xmlns="http://www.w3.org/2000/svg" xmlns:xlink="http://www.w3.org/1999/xlink" xml:space="preserve" xmlns:serif="http://www.serif.com/" style="fill-rule:evenodd;clip-rule:evenodd;stroke-linejoin:round;stroke-miterlimit:2;">
    <g transform="matrix(1,0,0,1,-772.005,0)">
        <g id="Монтажная-область2ллщ" serif:id="Монтажная область2ллщ" transform="matrix(0.179147,0,0,0.260079,390.72,0)">
            <rect x="2128.33" y="0" width="1920" height="1080" style="fill:none;"/>
            <g transform="matrix(19.2866,0,0,13.285,-6992.69,-2212.53)">
                <path d="M524.661,213.887C524.703,214.728 525.165,215.148 526.006,215.148L536.979,215.148C537.82,215.148 538.156,214.77 537.988,213.929L532.313,186.938C532.144,186.097 531.64,185.719 530.799,185.719L514.907,185.719C514.066,185.719 513.562,186.097 513.394,186.938L507.718,213.929C507.55,214.77 507.886,215.148 508.727,215.148L519.7,215.148C520.541,215.148 521.003,214.728 521.045,213.887L521.34,209.893C521.382,209.052 521.844,208.632 522.685,208.632L523.021,208.632C523.862,208.632 524.325,209.052 524.367,209.893L524.661,213.887ZM523.862,203.334C523.904,204.049 523.568,204.428 522.853,204.428C522.096,204.428 521.802,204.049 521.844,203.334L522.18,198.542C522.223,198.121 522.433,197.911 522.853,197.911C523.274,197.911 523.484,198.121 523.526,198.542L523.862,203.334Z" style="fill:rgb(255,126,147);fill-rule:nonzero;"/>
            </g>
        </g>
    </g>
</svg>
