<svg xmlns="http://www.w3.org/2000/svg" viewBox="0 0 100 29" fill="none">
  <path fill-rule="evenodd" clip-rule="evenodd" d="M35.3846 2.66338C37.3295 1.08213 39.6776 0.291504 42.4286 0.291504C45.1754 0.291504 47.0988 1.08213 48.1989 2.66338C49.299 4.24452 49.4438 6.56286 48.6335 9.61819L46.1621 18.9278C45.3508 21.985 43.9753 24.3037 42.0355 25.884C40.0957 27.4643 37.7507 28.2546 35.0005 28.2546C32.2504 28.2546 30.3222 27.4643 29.2161 25.884C28.11 24.3037 27.9629 21.985 28.775 18.9278L31.2464 9.61819C32.0602 6.56286 33.4396 4.24452 35.3846 2.66338ZM38.6086 22.1482C39.2146 21.5408 39.7065 20.5256 40.0841 19.1028L42.6459 9.44331C43.0235 8.02306 43.0701 7.00836 42.7856 6.39924C42.5011 5.79005 41.92 5.48556 41.0423 5.48556C40.6294 5.47927 40.2195 5.55699 39.8369 5.7139C39.4543 5.87092 39.107 6.10398 38.8155 6.39924C38.1991 7.00573 37.702 8.0205 37.3244 9.44331L34.76 19.1028C34.3849 20.5238 34.3419 21.539 34.6307 22.1482C34.9194 22.7572 35.5032 23.0619 36.3816 23.0619C36.7948 23.07 37.2053 22.9931 37.5882 22.8361C37.971 22.679 38.3182 22.4449 38.6086 22.1482ZM14.5059 27.7179H27.6256C27.4899 27.3394 27.4136 26.618 27.321 25.7426C27.2017 24.6146 27.0552 23.2309 26.7202 21.9955L20.3861 25.3903L27.69 0.839641H21.6404L14.5059 27.7179ZM83.4211 2.66338C82.3208 1.08307 80.3952 0.292447 77.6443 0.291609C74.8929 0.290667 72.5466 1.08129 70.6043 2.66338C68.6573 4.24452 67.2778 6.56286 66.4659 9.61819L63.9959 18.9278C63.1839 21.985 63.3307 24.3037 64.4368 25.884C65.543 27.4643 67.4691 28.2567 70.2159 28.2611C72.9662 28.2611 75.3113 27.4709 77.2508 25.8906C79.1908 24.3103 80.5662 21.9916 81.3776 18.9344L83.8487 9.62472C84.6636 6.56496 84.5208 4.24452 83.4211 2.66338ZM75.3038 19.1028C74.9259 20.5256 74.4341 21.5408 73.8278 22.1482C73.5377 22.4451 73.1904 22.6793 72.8078 22.8363C72.4247 22.9934 72.0144 23.0702 71.6012 23.0619C70.7227 23.0619 70.139 22.7574 69.8501 22.1482C69.5611 21.539 69.6045 20.5238 69.9796 19.1028L72.5437 9.44331C72.9217 8.0205 73.4187 7.00585 74.0359 6.39924C74.3271 6.10387 74.6745 5.87081 75.057 5.7138C75.439 5.55678 75.8488 5.47916 76.262 5.48556C77.1392 5.48556 77.7206 5.79005 78.0061 6.39924C78.2916 7.00836 78.2448 8.02312 77.8651 9.44331L75.3038 19.1028ZM56.2179 10.9187L63.1169 0.83629H69.8339L55.4692 14.2747H61.0879L62.6997 27.7145H56.095L55.1652 14.887L51.7603 27.7145H45.7973L52.9319 0.83629H58.8947L56.2179 10.9187Z" fill="currentcolor"></path>
  <path d="M86.7764 28.2882C86.4019 28.308 86.0286 28.2363 85.6865 28.0794C85.3449 27.9222 85.0444 27.6843 84.8109 27.3851C84.5954 27.0669 84.4538 26.7026 84.3972 26.3199C84.3405 25.9374 84.37 25.5466 84.4833 25.1775C84.7335 24.319 85.2507 23.5674 85.9575 23.0367C86.6389 22.4022 87.5248 22.0451 88.446 22.0331C88.8199 22.008 89.1944 22.0808 89.5324 22.2447C89.8711 22.4086 90.1624 22.6582 90.3797 22.9697C90.5975 23.2869 90.7397 23.6513 90.7963 24.0344C90.8535 24.4173 90.8223 24.8086 90.7062 25.1775C90.4519 26.0521 89.9376 26.8239 89.2325 27.3851C88.5396 27.9656 87.6722 28.2845 86.7764 28.2882ZM89.6677 18.5196C89.5827 18.6459 89.4411 18.7216 89.2909 18.7216C89.0002 18.7216 88.7846 18.4512 88.8459 18.1649L92.096 3.03788C92.4364 1.45412 93.8246 0.324219 95.43 0.324219C98.1646 0.324219 99.7886 3.40952 98.2565 5.69644L89.6677 18.5196Z" fill="currentcolor"></path>
  <path d="M12.0712 0.294699C12.4455 0.275007 12.819 0.346548 13.1609 0.503667C13.5026 0.660682 13.8028 0.898666 14.0364 1.19782C14.252 1.51614 14.3935 1.88045 14.4503 2.26298C14.5071 2.64562 14.4776 3.03633 14.3641 3.40556C14.114 4.26395 13.5965 5.01561 12.8901 5.54636C12.2085 6.18072 11.3228 6.53778 10.4007 6.54985C10.0272 6.57505 9.65347 6.50219 9.31517 6.33822C8.97698 6.1743 8.68537 5.9247 8.46819 5.61319C8.25043 5.29601 8.10746 4.93171 8.05071 4.54865C7.99384 4.1656 8.02464 3.77437 8.14069 3.40556C8.39491 2.53093 8.91023 1.75905 9.61464 1.19782C10.3076 0.617316 11.175 0.298365 12.0712 0.294699ZM9.17982 10.0634C9.26443 9.93709 9.40573 9.86138 9.55685 9.86138C9.84707 9.86138 10.0632 10.1318 10.0016 10.4181L6.75134 25.5451C6.41101 27.1288 5.02284 28.2587 3.41728 28.2587C0.682585 28.2587 -0.940617 25.1734 0.591056 22.8866L9.17982 10.0634Z" fill="currentcolor"></path>
</svg>